<?xml version="1.0" encoding="UTF-8" standalone="no"?> <svg id="Flat" xmlns="http://www.w3.org/2000/svg" viewBox="0 0 64 64"><path d="M53.723,9.818a26.191,26.191,0,0,0-19.858.28l-4.213,1.793.7,11.695,1.208,10.977-.187.812C31.187,36.188,34,38.9,34,38.9a15.116,15.116,0,0,0,10.326,4.162h0A13.45,13.45,0,0,0,57.172,33.3l.239-.814a13.985,13.985,0,0,0,.526-2.885L59,11.891ZM53,34.509c-1.073-3.836-5.093-7.353-9-7.353s-7.927,3.517-9,7.353V31.445a9,9,0,1,1,18,0Z" style="fill:#556180"/><path d="M29.071,22.712a26.193,26.193,0,0,0-19.859.28L5,24.785,6.063,42.5a13.936,13.936,0,0,0,.526,2.881l.239.817a13.45,13.45,0,0,0,12.846,9.76h0A13.449,13.449,0,0,0,32.519,46.2l.24-.815a13.985,13.985,0,0,0,.526-2.885l.343-5.722.72-11.989ZM29,40.613a9,9,0,1,1-18,0V37.549c1.073,3.836,5.093,7.353,9,7.353s7.927-3.517,9-7.353Z" style="fill:#ffd949"/><path d="M29.653,34a1,1,0,0,1-.823-.431,3.382,3.382,0,0,0-2.7-1.667,3.381,3.381,0,0,0-2.7,1.667,1,1,0,1,1-1.644-1.138A5.307,5.307,0,0,1,26.13,29.9a5.311,5.311,0,0,1,4.345,2.529A1,1,0,0,1,29.653,34Z" style="fill:#f29c1f"/><path d="M16.74,34a1,1,0,0,1-.823-.431,3.381,3.381,0,0,0-2.7-1.667,3.381,3.381,0,0,0-2.7,1.667,1,1,0,1,1-1.644-1.138A5.307,5.307,0,0,1,13.218,29.9a5.31,5.31,0,0,1,4.344,2.529A1,1,0,0,1,16.74,34Z" style="fill:#f29c1f"/><path d="M50.782,20.1a5.31,5.31,0,0,1-4.344-2.529,1,1,0,0,1,1.645-1.138,3.019,3.019,0,0,0,5.4,0,1,1,0,1,1,1.644,1.138A5.307,5.307,0,0,1,50.782,20.1Z" style="fill:#29485a"/><path d="M37.87,20.1a5.311,5.311,0,0,1-4.345-2.529,1,1,0,0,1,1.645-1.138,3.382,3.382,0,0,0,2.7,1.667,3.381,3.381,0,0,0,2.7-1.667,1,1,0,1,1,1.644,1.138A5.307,5.307,0,0,1,37.87,20.1Z" style="fill:#29485a"/></svg>

