<?xml version="1.0" encoding="UTF-8" standalone="no"?> <svg xmlns="http://www.w3.org/2000/svg" viewBox="0 0 32 32"><defs><style>.cls-1{fill:#263f52;}.cls-2{fill:#fac100;}.cls-3{fill:#2d4a60;}</style></defs><title>University</title><g id="University"><path class="cls-1" d="M16,27a18.955,18.955,0,0,1-7.188-1.608A3.021,3.021,0,0,1,7,22.634V15.458a1,1,0,0,1,1-1H24a1,1,0,0,1,1,1v7.176a3.021,3.021,0,0,1-1.813,2.758A18.946,18.946,0,0,1,16,27Z"/><path class="cls-2" d="M27,22a1,1,0,0,1-1-1V14.1a1,1,0,0,1,2,0V21A1,1,0,0,1,27,22Z"/><path class="cls-3" d="M16,19.931a3.044,3.044,0,0,1-1.285-.285L3.178,14.307a2.03,2.03,0,0,1,0-3.685L14.715,5.283h0a3.047,3.047,0,0,1,2.57,0l11.537,5.339a2.03,2.03,0,0,1,0,3.686L17.285,19.646A3.044,3.044,0,0,1,16,19.931Z"/></g></svg>