<?xml version="1.0" encoding="UTF-8"?>
<!DOCTYPE svg PUBLIC "-//W3C//DTD SVG 1.1//EN" "http://www.w3.org/Graphics/SVG/1.1/DTD/svg11.dtd">
<!-- Creator: CorelDRAW -->
<svg xmlns="http://www.w3.org/2000/svg" xml:space="preserve" width="1.70666in" height="1.70666in" version="1.1" style="shape-rendering:geometricPrecision; text-rendering:geometricPrecision; image-rendering:optimizeQuality; fill-rule:evenodd; clip-rule:evenodd"
viewBox="0 0 1707 1707"
 xmlns:xlink="http://www.w3.org/1999/xlink">
 <defs>
  <style type="text/css">
   <![CDATA[
    .fil3 {fill:#1AA1FF}
    .fil2 {fill:#27D389}
    .fil1 {fill:#49454B}
    .fil0 {fill:#58535A}
    .fil4 {fill:#FF3131}
    .fil5 {fill:#FF9E5C}
    .fil6 {fill:white}
   ]]>
  </style>
 </defs>
 <g id="Layer_x0020_1">
  <metadata id="CorelCorpID_0Corel-Layer"/>
  <path class="fil0" d="M1616 1436l-245 0c-8,0 -15,-4 -19,-11l-239 -374 -520 0 -238 374c-4,7 -11,11 -19,11l-245 0c-12,0 -22,-9 -23,-21 -7,-78 -16,-163 -26,-254 -20,-189 -42,-384 -42,-544 0,-191 156,-346 346,-346 183,0 334,143 346,323l323 0c12,-180 162,-323 345,-323 191,0 346,155 346,346 0,160 -21,355 -42,544 -9,91 -19,176 -25,254 -1,12 -11,21 -23,21z"/>
  <path class="fil1" d="M1616 1436l-245 0c-8,0 -15,-4 -19,-11l-116 -181 419 0c-6,60 -12,117 -16,171 -1,12 -11,21 -23,21zm-1145 -192l-116 181c-4,7 -11,11 -19,11l-245 0c-12,0 -22,-9 -23,-21 -5,-54 -10,-111 -17,-171l420 0z"/>
  <path class="fil1" d="M1356 1009c-138,0 -251,-113 -251,-251 0,-138 113,-251 251,-251 138,0 250,113 250,251 0,138 -112,251 -250,251z"/>
  <path class="fil0" d="M1356 969c116,0 210,-95 210,-211 0,-116 -94,-211 -210,-211 -116,0 -211,95 -211,211 0,116 95,211 211,211z"/>
  <path class="fil1" d="M351 1009c-139,0 -251,-113 -251,-251 0,-139 112,-251 251,-251 138,0 251,112 251,251 0,138 -113,251 -251,251z"/>
  <path class="fil0" d="M351 969c116,0 211,-95 211,-211 0,-116 -95,-211 -211,-211 -117,0 -211,95 -211,211 0,116 94,211 211,211z"/>
  <path class="fil2" d="M1356 705c-36,0 -65,-29 -65,-65 0,-36 29,-65 65,-65 36,0 65,29 65,65 0,36 -29,65 -65,65z"/>
  <path class="fil3" d="M1356 941c-36,0 -65,-29 -65,-65 0,-36 29,-65 65,-65 36,0 65,29 65,65 0,36 -29,65 -65,65z"/>
  <path class="fil4" d="M1238 823c-36,0 -65,-29 -65,-65 0,-36 29,-65 65,-65 36,0 65,29 65,65 0,36 -29,65 -65,65z"/>
  <path class="fil5" d="M1474 823c-36,0 -65,-29 -65,-65 0,-36 29,-65 65,-65 36,0 65,29 65,65 0,36 -29,65 -65,65z"/>
  <path class="fil5" d="M351 897c-13,0 -23,-11 -23,-23l0 -93 -93 0c-13,0 -23,-11 -23,-23 0,-13 10,-23 23,-23l93 0 0 -93c0,-12 10,-23 23,-23 12,0 23,11 23,23l0 93 93 0c12,0 22,10 22,23 0,12 -10,23 -22,23l-93 0 0 93c0,12 -11,23 -23,23z"/>
  <path class="fil6" d="M779 845l-66 0c-13,0 -23,-10 -23,-22 0,-13 10,-23 23,-23l66 0c13,0 23,10 23,23 0,12 -10,22 -23,22z"/>
  <path class="fil6" d="M946 845l-67 0c-12,0 -22,-10 -22,-22 0,-13 10,-23 22,-23l67 0c13,0 23,10 23,23 0,12 -10,22 -23,22z"/>
 </g>
</svg>
