<?xml version="1.0" encoding="UTF-8" standalone="no"?> <svg width="64" height="64" viewBox="0 0 64 64" fill="none" xmlns="http://www.w3.org/2000/svg">
<path d="M55.71 11.7002H52.11V8.09018C52.059 7.07826 51.6211 6.12461 50.8869 5.42641C50.1526 4.72822 49.1782 4.33887 48.165 4.33887C47.1517 4.33887 46.1773 4.72822 45.443 5.42641C44.7088 6.12461 44.2709 7.07826 44.22 8.09018V11.7002H40.61C39.598 11.7511 38.6444 12.189 37.9462 12.9233C37.248 13.6575 36.8586 14.632 36.8586 15.6452C36.8586 16.6584 37.248 17.6329 37.9462 18.3671C38.6444 19.1013 39.598 19.5392 40.61 19.5902H44.22V23.2002C44.2709 24.2121 44.7088 25.1658 45.443 25.864C46.1773 26.5622 47.1517 26.9515 48.165 26.9515C49.1782 26.9515 50.1526 26.5622 50.8869 25.864C51.6211 25.1658 52.059 24.2121 52.11 23.2002V19.5902H55.71C56.2447 19.6171 56.7794 19.535 57.2815 19.3489C57.7835 19.1628 58.2425 18.8766 58.6306 18.5076C59.0186 18.1387 59.3275 17.6946 59.5387 17.2026C59.7498 16.7105 59.8586 16.1806 59.8586 15.6452C59.8586 15.1097 59.7498 14.5799 59.5387 14.0878C59.3275 13.5957 59.0186 13.1517 58.6306 12.7827C58.2425 12.4138 57.7835 12.1275 57.2815 11.9414C56.7794 11.7553 56.2447 11.6733 55.71 11.7002V11.7002Z" fill="#78B9EB"/>
<path d="M22.72 36.2998H3.45996V55.2398C3.45996 55.9051 3.59117 56.5639 3.84608 57.1785C4.101 57.7931 4.47461 58.3513 4.94553 58.8213C5.41646 59.2913 5.97545 59.6638 6.59051 59.9175C7.20557 60.1712 7.86463 60.3011 8.52996 60.2998H27.79V41.3698C27.79 40.0252 27.2558 38.7356 26.305 37.7848C25.3542 36.834 24.0646 36.2998 22.72 36.2998V36.2998Z" fill="#78B9EB"/>
<path d="M27.71 2.5H8C6.54212 2.50264 5.14471 3.08295 4.11383 4.11383C3.08295 5.14471 2.50264 6.54212 2.5 8V27.71C2.5 28.1078 2.65804 28.4894 2.93934 28.7707C3.22064 29.052 3.60218 29.21 4 29.21H23.71C25.1687 29.21 26.5676 28.6305 27.5991 27.5991C28.6305 26.5676 29.21 25.1687 29.21 23.71V4C29.21 3.60218 29.052 3.22064 28.7707 2.93934C28.4894 2.65804 28.1078 2.5 27.71 2.5ZM26.21 23.71C26.21 24.0383 26.1453 24.3634 26.0197 24.6667C25.8941 24.97 25.7099 25.2456 25.4778 25.4778C25.2456 25.7099 24.97 25.8941 24.6667 26.0197C24.3634 26.1453 24.0383 26.21 23.71 26.21H5.5V8C5.5 7.33696 5.76339 6.70107 6.23223 6.23223C6.70107 5.76339 7.33696 5.5 8 5.5H26.21V23.71Z" fill="#006DF0"/>
<path d="M23.71 34.79H4C3.60218 34.79 3.22064 34.9481 2.93934 35.2294C2.65804 35.5107 2.5 35.8922 2.5 36.29V56C2.50264 57.4579 3.08295 58.8553 4.11383 59.8862C5.14471 60.9171 6.54212 61.4974 8 61.5H27.71C28.1078 61.5 28.4894 61.342 28.7707 61.0607C29.052 60.7794 29.21 60.3979 29.21 60V40.29C29.21 38.8313 28.6305 37.4324 27.5991 36.401C26.5676 35.3695 25.1687 34.79 23.71 34.79V34.79ZM26.21 58.5H8C7.33696 58.5 6.70107 58.2366 6.23223 57.7678C5.76339 57.299 5.5 56.6631 5.5 56V37.79H23.71C24.0383 37.79 24.3634 37.8547 24.6667 37.9803C24.97 38.106 25.2456 38.2901 25.4778 38.5223C25.7099 38.7544 25.8941 39.03 26.0197 39.3333C26.1453 39.6366 26.21 39.9617 26.21 40.29V58.5Z" fill="#006DF0"/>
<path d="M60 34.79H40.29C38.8313 34.79 37.4324 35.3695 36.401 36.401C35.3695 37.4324 34.79 38.8313 34.79 40.29V60C34.79 60.3979 34.9481 60.7794 35.2294 61.0607C35.5107 61.342 35.8922 61.5 36.29 61.5H56C57.4579 61.4974 58.8553 60.9171 59.8862 59.8862C60.9171 58.8553 61.4974 57.4579 61.5 56V36.29C61.5 35.8922 61.342 35.5107 61.0607 35.2294C60.7794 34.9481 60.3979 34.79 60 34.79ZM58.5 56C58.5 56.6631 58.2366 57.299 57.7678 57.7678C57.299 58.2366 56.6631 58.5 56 58.5H37.79V40.29C37.79 39.627 38.0534 38.9911 38.5223 38.5223C38.9911 38.0534 39.627 37.79 40.29 37.79H58.5V56Z" fill="#006DF0"/>
<path d="M40.29 21.36H42.64V23.71C42.64 25.1687 43.2195 26.5676 44.2509 27.5991C45.2824 28.6305 46.6813 29.21 48.14 29.21C49.5987 29.21 50.9977 28.6305 52.0291 27.5991C53.0606 26.5676 53.64 25.1687 53.64 23.71V21.36H56C57.4587 21.36 58.8577 20.7805 59.8891 19.7491C60.9206 18.7176 61.5 17.3187 61.5 15.86C61.5 14.4013 60.9206 13.0024 59.8891 11.9709C58.8577 10.9395 57.4587 10.36 56 10.36H53.64V8C53.64 6.54131 53.0606 5.14236 52.0291 4.11091C50.9977 3.07946 49.5987 2.5 48.14 2.5C46.6813 2.5 45.2824 3.07946 44.2509 4.11091C43.2195 5.14236 42.64 6.54131 42.64 8V10.36H40.29C38.8313 10.36 37.4324 10.9395 36.401 11.9709C35.3695 13.0024 34.79 14.4013 34.79 15.86C34.79 17.3187 35.3695 18.7176 36.401 19.7491C37.4324 20.7805 38.8313 21.36 40.29 21.36V21.36ZM40.29 13.36H44.14C44.5379 13.36 44.9194 13.202 45.2007 12.9207C45.482 12.6394 45.64 12.2578 45.64 11.86V8C45.64 7.33696 45.9034 6.70107 46.3723 6.23223C46.8411 5.76339 47.477 5.5 48.14 5.5C48.8031 5.5 49.439 5.76339 49.9078 6.23223C50.3766 6.70107 50.64 7.33696 50.64 8V11.86C50.64 12.2578 50.7981 12.6394 51.0794 12.9207C51.3607 13.202 51.7422 13.36 52.14 13.36H56C56.6631 13.36 57.299 13.6234 57.7678 14.0922C58.2366 14.5611 58.5 15.197 58.5 15.86C58.5 16.523 58.2366 17.1589 57.7678 17.6278C57.299 18.0966 56.6631 18.36 56 18.36H52.14C51.7422 18.36 51.3607 18.518 51.0794 18.7993C50.7981 19.0806 50.64 19.4622 50.64 19.86V23.71C50.64 24.373 50.3766 25.0089 49.9078 25.4778C49.439 25.9466 48.8031 26.21 48.14 26.21C47.477 26.21 46.8411 25.9466 46.3723 25.4778C45.9034 25.0089 45.64 24.373 45.64 23.71V19.86C45.64 19.4622 45.482 19.0806 45.2007 18.7993C44.9194 18.518 44.5379 18.36 44.14 18.36H40.29C39.627 18.36 38.9911 18.0966 38.5223 17.6278C38.0534 17.1589 37.79 16.523 37.79 15.86C37.79 15.197 38.0534 14.5611 38.5223 14.0922C38.9911 13.6234 39.627 13.36 40.29 13.36V13.36Z" fill="#006DF0"/>
</svg>
