<?xml version="1.0" encoding="utf-8"?>
<!-- Generator: Adobe Illustrator 26.0.2, SVG Export Plug-In . SVG Version: 6.00 Build 0)  -->
<svg version="1.1" id="Layer_3" xmlns="http://www.w3.org/2000/svg" xmlns:xlink="http://www.w3.org/1999/xlink" x="0px" y="0px"
	 viewBox="0 0 64 64" style="enable-background:new 0 0 64 64;" xml:space="preserve">
<g>
	<path style="fill:#E3E8F6;" d="M33,28.75V6H23v22.75C16.052,30.886,11,37.352,11,45c0,9.389,7.611,17,17,17s17-7.611,17-17
		C45,37.352,39.948,30.886,33,28.75z"/>
	<path style="fill:#F8F7FE;" d="M33,28.75V6H23v22.75c-1.913,0.588-3.674,1.514-5.234,2.693
		c2.545,12.297,11.256,22.076,22.452,25.361C43.173,53.745,45,49.589,45,45C45,37.352,39.948,30.886,33,28.75z"/>
	<path style="fill:#2763BB;" d="M28,62c9.389,0,17-7.611,17-17c0-0.146-0.014-0.289-0.018-0.434H39C38.378,44.849,37.697,45,37,45
		c-1.281,0-2.509-0.509-3.414-1.414l-0.172-0.172C32.509,42.509,31.281,42,30,42s-2.509,0.509-3.414,1.414l-0.172,0.172
		C25.509,44.491,24.281,45,23,45s-2.509-0.509-3.414-1.414l-0.172-0.172C18.509,42.509,17.281,42,16,42s-2.509,0.509-3.414,1.414
		L11,45C11,54.389,18.611,62,28,62z"/>
	<path style="fill:#3079E6;" d="M44.982,44.566H39C38.378,44.849,37.697,45,37,45c-1.281,0-2.509-0.509-3.414-1.414l-0.172-0.172
		C32.509,42.509,31.281,42,30,42s-2.509,0.509-3.414,1.414l-0.172,0.172c-0.736,0.736-1.689,1.193-2.707,1.344
		c4.124,5.684,9.874,9.926,16.511,11.874c0,0,0,0,0,0C43.173,53.745,45,49.589,45,45C45,44.854,44.986,44.711,44.982,44.566z"/>
	<path style="fill:#F8F7FE;" d="M39,18v38c0,3.314,2.686,6,6,6s6-2.686,6-6V18H39z"/>
	<path style="fill:#F3A845;" d="M48,31c-0.64,0.64-1.509,1-2.414,1h-0.172c-0.905,0-1.774-0.36-2.414-1c-0.64-0.64-1.509-1-2.414-1
		H39v26c0,3.314,2.686,6,6,6s6-2.686,6-6V30h-0.586C49.509,30,48.64,30.36,48,31z"/>
	<path style="fill:#EECC61;" d="M48,31c-0.64,0.64-1.509,1-2.414,1h-0.172c-0.905,0-1.774-0.36-2.414-1c-0.64-0.64-1.509-1-2.414-1
		H39v1.5c0,12.945,5.08,23.716,11.795,26.032c0,0,0,0,0,0c0.06-0.227,0.105-0.46,0.14-0.697c0.004-0.029,0.009-0.057,0.013-0.085
		C50.981,56.504,51,56.255,51,56V30h-0.586C49.509,30,48.64,30.36,48,31z"/>
	<rect x="21" y="2" style="fill:#E3E8F6;" width="14" height="4"/>
	<rect x="37" y="14" style="fill:#E3E8F6;" width="16" height="4"/>
	<circle style="fill:#73A4EA;" cx="19" cy="51" r="2"/>
	<circle style="fill:#73A4EA;" cx="33" cy="54" r="2"/>
	<circle style="fill:#FCE79C;" cx="46" cy="38" r="2"/>
	<circle style="fill:#F3A845;" cx="10" cy="7" r="3"/>
	<circle style="fill:#F3A845;" cx="48" cy="6" r="2"/>
	<path style="fill:#F8F7FE;" d="M53,14H37.062c0.526,2.25,4.549,4,9.438,4H53V14z"/>
	<path style="fill:#EECC61;" d="M10,4C9.258,4,8.589,4.279,8.065,4.725C8.601,6.611,10.317,8,12.375,8
		c0.156,0,0.304-0.03,0.456-0.046C12.932,7.653,13,7.336,13,7C13,5.343,11.657,4,10,4z"/>
	<path style="fill:#EECC61;" d="M48,4c-0.357,0-0.686,0.101-0.976,0.265C47.016,4.343,47,4.419,47,4.5C47,5.881,48.119,7,49.5,7
		c0.081,0,0.157-0.016,0.235-0.024C49.899,6.686,50,6.357,50,6C50,4.895,49.105,4,48,4z"/>
	<circle style="fill:#F3A845;" cx="17" cy="24" r="2"/>
	<path style="fill:#EECC61;" d="M17,22c-0.357,0-0.686,0.101-0.976,0.265C16.016,22.343,16,22.419,16,22.5
		c0,1.381,1.119,2.5,2.5,2.5c0.081,0,0.157-0.016,0.235-0.024C18.899,24.686,19,24.357,19,24C19,22.895,18.105,22,17,22z"/>
	<path style="fill:#F8F7FE;" d="M35,2H21.091C21.037,2.164,21,2.33,21,2.5C21,4.433,24.582,6,29,6h6V2z"/>
	<g>
		<path d="M53,13H37c-0.553,0-1,0.448-1,1v4c0,0.552,0.447,1,1,1h1v11.049c-1.247-0.836-2.58-1.521-4-2.022V7h1c0.553,0,1-0.448,1-1
			V2c0-0.552-0.447-1-1-1H21c-0.553,0-1,0.448-1,1v4c0,0.552,0.447,1,1,1h1v21.027C14.792,30.564,10,37.294,10,45
			c0,9.925,8.075,18,18,18c3.938,0,7.739-1.294,10.854-3.653C40.043,61.521,42.352,63,45,63c3.859,0,7-3.141,7-7V19h1
			c0.553,0,1-0.448,1-1v-4C54,13.448,53.553,13,53,13z M22,3h12v2H22V3z M23.294,29.706C23.714,29.577,24,29.189,24,28.75V23h4v-2
			h-4v-2h4v-2h-4v-2h4v-2h-4v-2h4V9h-4V7h8v21.75c0,0.439,0.286,0.827,0.706,0.956c1.938,0.596,3.711,1.555,5.294,2.826v11.328
			c-1.295,0.338-2.753-0.027-3.707-0.982l-0.172-0.172C33.036,41.622,31.534,41,30,41s-3.036,0.622-4.121,1.707l-0.172,0.172
			C24.994,43.592,24.008,44,23,44s-1.994-0.408-2.707-1.121l-0.172-0.172C19.036,41.622,17.534,41,16,41
			c-1.386,0-2.743,0.512-3.793,1.411C13.164,36.463,17.379,31.524,23.294,29.706z M28,61c-8.689,0-15.768-6.967-15.98-15.606
			l1.273-1.273C14.006,43.408,14.992,43,16,43s1.994,0.408,2.707,1.121l0.172,0.172C19.964,45.378,21.466,46,23,46
			s3.036-0.622,4.121-1.707l0.172-0.172C28.006,43.408,28.992,43,30,43s1.994,0.408,2.707,1.121l0.172,0.172
			C33.964,45.378,35.466,46,37,46c0.339,0,0.671-0.036,1-0.093V56c0,0.466,0.048,0.92,0.135,1.361C35.28,59.703,31.71,61,28,61z
			 M45,61c-2.757,0-5-2.243-5-5V31h0.586c0.645,0,1.251,0.251,1.707,0.708C43.127,32.541,44.235,33,45.414,33h0.172
			c1.179,0,2.287-0.459,3.121-1.292c0.357-0.357,0.806-0.583,1.293-0.667V56C50,58.757,47.757,61,45,61z M50,29.04
			c-1.021,0.095-1.973,0.518-2.707,1.252C46.837,30.749,46.23,31,45.586,31h-0.172c-0.645,0-1.251-0.251-1.707-0.708
			C42.873,29.459,41.765,29,40.586,29H40v-2h4v-2h-4v-2h4v-2h-4v-2h10V29.04z M52,17H38v-2h14V17z"/>
		<path d="M19,48c-1.654,0-3,1.346-3,3s1.346,3,3,3s3-1.346,3-3S20.654,48,19,48z M19,52c-0.552,0-1-0.448-1-1s0.448-1,1-1
			s1,0.448,1,1S19.552,52,19,52z"/>
		<path d="M33,51c-1.654,0-3,1.346-3,3s1.346,3,3,3s3-1.346,3-3S34.654,51,33,51z M33,55c-0.552,0-1-0.448-1-1s0.448-1,1-1
			s1,0.448,1,1S33.552,55,33,55z"/>
		<path d="M46,35c-1.654,0-3,1.346-3,3s1.346,3,3,3s3-1.346,3-3S47.654,35,46,35z M46,39c-0.552,0-1-0.448-1-1s0.448-1,1-1
			s1,0.448,1,1S46.552,39,46,39z"/>
		<rect x="29" y="46" width="2" height="2"/>
		<rect x="26" y="56" width="2" height="2"/>
		<rect x="24" y="49" width="2" height="2"/>
		<rect x="42" y="44" width="2" height="2"/>
		<rect x="46" y="54" width="2" height="2"/>
		<path d="M14,7c0-2.206-1.794-4-4-4S6,4.794,6,7s1.794,4,4,4S14,9.206,14,7z M8,7c0-1.103,0.897-2,2-2s2,0.897,2,2s-0.897,2-2,2
			S8,8.103,8,7z"/>
		<path d="M48,9c1.654,0,3-1.346,3-3s-1.346-3-3-3s-3,1.346-3,3S46.346,9,48,9z M48,5c0.552,0,1,0.449,1,1s-0.448,1-1,1
			s-1-0.449-1-1S47.448,5,48,5z"/>
		<path d="M17,27c1.654,0,3-1.346,3-3s-1.346-3-3-3s-3,1.346-3,3S15.346,27,17,27z M17,23c0.552,0,1,0.449,1,1s-0.448,1-1,1
			s-1-0.449-1-1S16.448,23,17,23z"/>
	</g>
</g>
</svg>
