<?xml version="1.0" encoding="UTF-8" standalone="no"?> <svg width="48" height="48" viewBox="0 0 48 48" fill="none" xmlns="http://www.w3.org/2000/svg">
<path d="M24 46C36.1503 46 46 36.1503 46 24C46 11.8497 36.1503 2 24 2C11.8497 2 2 11.8497 2 24C2 36.1503 11.8497 46 24 46Z" fill="#EAEFF0"/>
<path d="M28.19 40.762C23.9727 40.7662 19.8524 39.4963 16.3692 37.1188C12.8859 34.7412 10.2021 31.3669 8.66937 27.4379C7.13667 23.5089 6.82659 19.2086 7.77976 15.1004C8.73292 10.9922 10.9049 7.2677 14.011 4.41501C10.9182 5.98989 8.242 8.27449 6.20142 11.082C4.16083 13.8895 2.81376 17.1401 2.27037 20.568C1.72699 23.996 2.00272 27.5038 3.07502 30.8048C4.14732 34.1057 5.98574 37.1059 8.43992 39.5601C10.8941 42.0143 13.8943 43.8527 17.1953 44.925C20.4962 45.9973 24.0041 46.273 27.432 45.7296C30.8599 45.1863 34.1106 43.8392 36.918 41.7986C39.7255 39.758 42.0101 37.0819 43.585 33.989C41.6289 36.1239 39.2501 37.8285 36.5998 38.9945C33.9494 40.1605 31.0855 40.7624 28.19 40.762V40.762Z" fill="#CDD3D3"/>
<path d="M33.17 22.3C33.1876 22.2199 33.2003 22.1387 33.208 22.057L39 20.179C39.0566 20.2433 39.1174 20.3038 39.182 20.36L45.962 25.29C45.992 24.87 46.002 24.43 46.002 24C46.0107 18.9083 44.2463 13.9725 41.012 10.04L38.422 18.02C38.4034 18.1045 38.3897 18.19 38.381 18.276L32.6 20.154C32.5397 20.0854 32.4753 20.0206 32.407 19.96L25.23 14.746C25.156 14.7016 25.0792 14.6622 25 14.628V8.55801C25.0793 8.52409 25.1562 8.48466 25.23 8.44001L32.02 3.51001C26.8629 1.49666 21.1371 1.49666 15.98 3.51001L22.77 8.44001C22.8438 8.48466 22.9207 8.52409 23 8.55801V14.628C22.9201 14.6621 22.8426 14.7015 22.768 14.746L15.591 19.96C15.5227 20.0206 15.4583 20.0854 15.398 20.154L9.621 18.276C9.6123 18.19 9.59861 18.1045 9.58 18.02L6.99 10.04C3.75566 13.9725 1.99134 18.9083 2 24C2 24.43 2.01 24.87 2.04 25.29L8.82 20.36C8.88416 20.3036 8.9443 20.2428 9 20.178L14.79 22.06C14.7977 22.1417 14.8104 22.2229 14.828 22.303L17.57 30.74C17.605 30.8221 17.6458 30.9016 17.692 30.978L14.117 35.9C14.0323 35.8808 13.9465 35.8671 13.86 35.859H5.47C8.45459 40.5206 13.0852 43.8874 18.44 45.289L15.85 37.309C15.8158 37.2303 15.7767 37.1538 15.733 37.08L19.316 32.147C19.3978 32.1654 19.4806 32.1787 19.564 32.187H28.436C28.5194 32.1787 28.6022 32.1654 28.684 32.147L32.267 37.08C32.2229 37.1536 32.1838 37.2301 32.15 37.309L29.56 45.289C34.9148 43.8874 39.5454 40.5206 42.53 35.859H34.14C34.0535 35.8671 33.9677 35.8808 33.883 35.9L30.306 30.978C30.352 30.9012 30.3928 30.8213 30.428 30.739L33.17 22.3Z" fill="#2D4A60"/>
<path d="M14.38 35.539L14.117 35.901C14.0323 35.8818 13.9465 35.8681 13.86 35.86H5.47C8.45459 40.5216 13.0852 43.8884 18.44 45.29L15.85 37.31C15.8158 37.2313 15.7767 37.1548 15.733 37.081L15.946 36.787C15.404 36.3957 14.882 35.9797 14.38 35.539Z" fill="#263F52"/>
<path d="M41.615 35.86C38.621 38.3819 34.9765 40.0084 31.1 40.553L29.56 45.29C34.9148 43.8884 39.5454 40.5216 42.53 35.86H41.615Z" fill="#263F52"/>
<path d="M6.99 10.04C3.75566 13.9725 1.99134 18.9083 2 24C2 24.43 2.01 24.87 2.04 25.29L7.321 21.45C7.279 20.907 7.238 20.363 7.238 19.81C7.23794 17.7267 7.55111 15.6552 8.167 13.665L6.99 10.04Z" fill="#263F52"/>
</svg>
